<svg id='svg-run' fill='#fff'  height="512pt" viewBox="0 0 512 512.0589" width="512pt" xmlns="http://www.w3.org/2000/svg">
	<path d="m429.605469 292.574219 73.78125-82.84375c6.222656-7.007813 9.308593-16.257813 8.53125-25.597657-.761719-9.335937-5.355469-17.941406-12.6875-23.765624-14.734375-11.308594-35.746094-9.089844-47.789063 5.050781l-55.789062 62.632812-82.84375-73.777343c-7.035156-6.265626-17.820313-5.644532-24.089844 1.390624l-265.777344 298.429688c-12.640625 13.589844-12.421875 34.695312.496094 48.023438 6.363281 6.355468 14.992188 9.914062 23.984375 9.890624h1.121094c9.351562-.316406 18.167969-4.441406 24.402343-11.417968l232.695313-261.28125 63.730469 56.753906c17.609375 15.636719 44.550781 14.074219 60.234375-3.488281zm-48.886719-9.261719-63.726562-56.753906c-3.394532-2.984375-7.828126-4.519532-12.339844-4.265625-4.519532.25-8.753906 2.300781-11.75 5.691406l-232.695313 261.238281c-3.101562 3.515625-7.519531 5.585938-12.203125 5.71875-4.679687.074219-9.199218-1.707031-12.570312-4.949218-6.339844-6.988282-6.230469-17.683594.25-24.542969l265.777344-298.425781 82.839843 73.777343c7.039063 6.265625 17.820313 5.644531 24.089844-1.390625l55.800781-62.644531c6.0625-7.234375 16.671875-8.574219 24.347656-3.078125 3.664063 2.921875 5.964844 7.222656 6.363282 11.894531.402344 4.667969-1.140625 9.300781-4.257813 12.800781l-73.777343 82.839844c-9.417969 10.539063-25.582032 11.472656-36.148438 2.089844zm0 0"/>

	<path d="m171.824219 120.121094 57.351562 51.082031c7.039063 6.261719 17.820313 5.636719 24.089844-1.398437l22.699219-25.488282c6.269531-7.039062 5.648437-17.828125-1.390625-24.101562l-76.46875-68.101563c-17.597657-15.671875-44.566407-14.109375-60.238281 3.488281l-73.785157 82.84375c-6.222656 7.007813-9.304687 16.257813-8.535156 25.597657.777344 9.34375 5.394531 17.949219 12.75 23.765625 5.90625 4.71875 13.246094 7.269531 20.804687 7.238281 10.324219-.0625 20.132813-4.53125 26.957032-12.28125zm-92.886719 54.367187c-3.667969-2.921875-5.96875-7.222656-6.367188-11.894531-.398437-4.671875 1.140626-9.300781 4.257813-12.800781l73.78125-82.839844c4.503906-5.089844 10.855469-8.160156 17.636719-8.535156.511718 0 1.015625-.050781 1.519531-.050781 6.273437-.011719 12.324219 2.304687 16.988281 6.492187l76.476563 68.082031-22.699219 25.488282-57.351562-51.082032c-7.039063-6.261718-17.820313-5.636718-24.089844 1.398438l-55.808594 62.671875c-6.074219 7.210937-16.667969 8.546875-24.34375 3.070312zm0 0"/>

	<path d="m263.898438 502.167969c6.363281 6.355469 15 9.914062 23.996093 9.890625h1.109375c9.355469-.3125 18.179688-4.433594 24.421875-11.410156l73.777344-82.839844c15.675781-17.601563 14.113281-44.574219-3.488281-60.246094l-76.484375-68.121094c-3.386719-2.992187-7.820313-4.527344-12.332031-4.265625-4.527344.246094-8.765626 2.300781-11.765626 5.699219l-22.699218 25.480469c-6.269532 7.039062-5.644532 17.832031 1.398437 24.097656l57.34375 51.046875-55.800781 62.644531c-12.617188 13.601563-12.390625 34.699219.523438 48.023438zm12.253906-36.691407 55.824218-62.628906c6.265626-7.035156 5.640626-17.820312-1.390624-24.089844l-57.386719-51.070312 22.699219-25.480469 76.464843 68.113281c10.554688 9.402344 11.492188 25.582032 2.089844 36.136719l-73.777344 82.84375c-3.105469 3.507813-7.527343 5.570313-12.210937 5.699219-4.699219.214844-9.269532-1.585938-12.5625-4.949219-6.34375-6.992187-6.238282-17.695312.25-24.558593zm0 0"/>

	<path d="m324.414062 134.167969c14.011719 12.546875 32.164063 19.46875 50.972657 19.441406 1.507812 0 3.027343-.054687 4.546875-.136719 36.578125-2.125 66.5625-29.789062 71.617187-66.078125 5.054688-36.289062-16.230469-71.09375-50.835937-83.132812-34.605469-12.035157-72.894532 2.046875-91.453125 33.640625-18.554688 31.59375-12.210938 71.894531 15.152343 96.257812zm6.46875-97.082031c21.941407-24.636719 59.699219-26.824219 84.335938-4.882813s26.820312 59.699219 4.878906 84.335937c-21.9375 24.636719-59.695312 26.820313-84.332031 4.878907-11.855469-10.519531-19.035156-25.328125-19.949219-41.152344-.917968-15.824219 4.503906-31.363281 15.066406-43.179687zm0 0"/>

	<path d="m.03125 230.40625c0 4.714844 3.820312 8.535156 8.53125 8.535156h68.265625c4.714844 0 8.535156-3.820312 8.535156-8.535156 0-4.710938-3.820312-8.53125-8.535156-8.53125h-68.265625c-4.710938 0-8.53125 3.820312-8.53125 8.53125zm0 0"/>
	
	<path d="m34.164062 264.539062c0 4.714844 3.820313 8.535157 8.53125 8.535157h68.265626c4.714843 0 8.535156-3.820313 8.535156-8.535157 0-4.710937-3.820313-8.53125-8.535156-8.53125h-68.265626c-4.710937 0-8.53125 3.820313-8.53125 8.53125zm0 0"/>
</svg>