<svg id='svg-detail' fill='#fff' height="512pt" viewBox="0 -32 512 512" width="512pt" xmlns="http://www.w3.org/2000/svg">
  <path d="m69.332031 106.667969h-32c-20.585937 0-37.332031-16.746094-37.332031-37.335938v-32c0-20.585937 16.746094-37.332031 37.332031-37.332031h32c20.589844 0 37.335938 16.746094 37.335938 37.332031v32c0 20.589844-16.746094 37.335938-37.335938 37.335938zm-32-74.667969c-2.941406 0-5.332031 2.390625-5.332031 5.332031v32c0 2.945313 2.390625 5.335938 5.332031 5.335938h32c2.945313 0 5.335938-2.390625 5.335938-5.335938v-32c0-2.941406-2.390625-5.332031-5.335938-5.332031zm0 0"/>
  <path d="m69.332031 277.332031h-32c-20.585937 0-37.332031-16.746093-37.332031-37.332031v-32c0-20.585938 16.746094-37.332031 37.332031-37.332031h32c20.589844 0 37.335938 16.746093 37.335938 37.332031v32c0 20.585938-16.746094 37.332031-37.335938 37.332031zm-32-74.664062c-2.941406 0-5.332031 2.386719-5.332031 5.332031v32c0 2.945312 2.390625 5.332031 5.332031 5.332031h32c2.945313 0 5.335938-2.386719 5.335938-5.332031v-32c0-2.945312-2.390625-5.332031-5.335938-5.332031zm0 0"/>
  <path d="m69.332031 448h-32c-20.585937 0-37.332031-16.746094-37.332031-37.332031v-32c0-20.589844 16.746094-37.335938 37.332031-37.335938h32c20.589844 0 37.335938 16.746094 37.335938 37.335938v32c0 20.585937-16.746094 37.332031-37.335938 37.332031zm-32-74.667969c-2.941406 0-5.332031 2.390625-5.332031 5.335938v32c0 2.941406 2.390625 5.332031 5.332031 5.332031h32c2.945313 0 5.335938-2.390625 5.335938-5.332031v-32c0-2.945313-2.390625-5.335938-5.335938-5.335938zm0 0"/>
  <path d="m496 69.332031h-330.667969c-8.832031 0-16-7.167969-16-16s7.167969-16 16-16h330.667969c8.832031 0 16 7.167969 16 16s-7.167969 16-16 16zm0 0"/>
  <path d="m496 240h-330.667969c-8.832031 0-16-7.167969-16-16s7.167969-16 16-16h330.667969c8.832031 0 16 7.167969 16 16s-7.167969 16-16 16zm0 0"/>
  <path d="m496 410.667969h-330.667969c-8.832031 0-16-7.167969-16-16s7.167969-16 16-16h330.667969c8.832031 0 16 7.167969 16 16s-7.167969 16-16 16zm0 0"/>
</svg>