<svg version="1.1" id="svg-time" fill='#000' xmlns="http://www.w3.org/2000/svg" xmlns:xlink="http://www.w3.org/1999/xlink" x="0px" y="0px"
	 viewBox="0 0 512 512" style="enable-background:new 0 0 512 512;" xml:space="preserve">
  <g>
    <path d="M276.281,261.198c0.441-1.707,1.052-3.355,1.052-5.198c0-7.794-4.408-14.332-10.667-18.056V74.667
      C266.667,68.771,261.896,64,256,64s-10.667,4.771-10.667,10.667v163.277c-6.259,3.724-10.667,10.262-10.667,18.056
      c0,11.76,9.563,21.333,21.333,21.333c1.842,0,3.491-0.611,5.198-1.052l83.26,83.26c2.083,2.083,4.813,3.125,7.542,3.125
      c2.729,0,5.458-1.042,7.542-3.125c4.167-4.167,4.167-10.917,0-15.083L276.281,261.198z"/>
    <path d="M482.958,137.823C438.646,52.813,351.688,0,256,0C114.833,0,0,114.844,0,256s114.833,256,256,256
      c5.896,0,10.667-4.771,10.667-10.667c0-5.896-4.771-10.667-10.667-10.667C126.604,490.667,21.333,385.396,21.333,256
      S126.604,21.333,256,21.333c53.917,0,104.792,18.292,145.458,50.479l-25.396,41.438c-1.75,2.865-2.042,6.396-0.813,9.51
      c1.25,3.125,3.875,5.479,7.125,6.354l88.333,23.927c4.042,1.104,8.438-0.292,11.104-3.604
      C484.458,146.135,484.917,141.573,482.958,137.823z M401.708,112.25l16.063-26.229c12.354,11.813,23.521,25.052,33.208,39.573
      L401.708,112.25z"/>
    <path d="M337.333,476.188c-19.104,7.063-39.125,11.594-59.479,13.458c-5.854,0.542-10.188,5.729-9.646,11.604
      c0.521,5.531,5.167,9.688,10.604,9.688c0.333,0,0.667-0.01,1-0.042c22.208-2.042,44.063-6.99,64.938-14.708
      c5.521-2.042,8.333-8.177,6.292-13.698C349.021,476.969,342.875,474.125,337.333,476.188z"/>
    <path d="M463.417,387.49c-4.771-3.323-11.458-2.198-14.854,2.646c-11.688,16.76-25.521,31.927-41.104,45.104
      c-4.5,3.802-5.083,10.531-1.271,15.031c2.104,2.5,5.125,3.781,8.146,3.781c2.438,0,4.875-0.823,6.875-2.521
      c17.021-14.365,32.104-30.917,44.854-49.188C469.438,397.51,468.25,390.865,463.417,387.49z"/>
    <path d="M501.333,245.333c-5.896,0-10.667,4.771-10.667,10.667c0,20.552-2.646,40.917-7.875,60.51
      c-1.521,5.698,1.875,11.542,7.563,13.052c0.917,0.25,1.854,0.365,2.75,0.365c4.729,0,9.042-3.146,10.313-7.917
      C509.104,300.615,512,278.406,512,256C512,250.104,507.229,245.333,501.333,245.333z"/>
  </g>
</svg>
