<svg id="svg-like" fill='#000' enable-background="new 0 0 512.009 512.009" height="512" viewBox="0 0 512.009 512.009" width="512" xmlns="http://www.w3.org/2000/svg">
  <path d="m440.974 267.037c31.739-29.709 10.535-83.028-32.768-83.028-12.045 0-83.843 0-92.127 0 16.751-43.802 20.127-79.75 20.127-120 0-53.903-63.36-81.211-92.287-52.287-7.554 7.554-11.713 17.6-11.713 28.287 0 41.076-15.346 80.708-42.882 111.032-2.97 3.271-2.727 8.33.544 11.3 3.271 2.971 8.331 2.729 11.301-.544 30.165-33.213 47.038-76.68 47.038-121.788 0-6.414 2.496-12.441 7.027-16.973 18.343-18.345 64.973.788 64.973 40.973 0 41.004-3.776 77.838-22.24 122.156-36.477 11.354-45.88 59.016-15.814 83.232-11.39 5.917-20.196 16.311-23.956 28.956-24.429 29.03-60.044 45.656-97.99 45.656h-16c-4.418 0-8 3.582-8 8s3.582 8 8 8h16c36.32 0 70.743-13.535 97.129-37.682 3.517 15.987 15.019 29.011 30.103 34.654-23.549 22.042-19.237 60.686 9.165 76.799-19.125 15.453-21.901 43.38-6.312 62.229h-90.084c-79.577 0-144-64.384-144-144 0-57.336 29.028-109.708 77.649-140.095l15.03-9.39c3.747-2.342 4.887-7.276 2.546-11.023-2.341-3.748-7.275-4.886-11.023-2.547-22.496 14.055-53.346 31.663-77.483 75.21-65.28 117.771 16.786 247.845 137.278 247.845h196c39.587 0 58.893-48.368 30.467-75.7 32.088-13.426 39.797-55.464 14.301-79.329 41.521-15.532 41.575-74.389.001-89.943zm-128.769-67.028h96c17.645 0 32 14.355 32 32s-14.355 32-32 32h-96c-17.645 0-32-14.355-32-32s14.355-32 32-32zm84 296c-14.661 0-55.084 0-72 0-15.439 0-28-12.561-28-28s12.561-28 28-28h72c15.439 0 28 12.561 28 28s-12.56 28-28 28zm12-72c-9.604 0-78.604 0-88 0-17.645 0-32-14.355-32-32s14.355-32 32-32h88c17.645 0 32 14.355 32 32s-14.355 32-32 32zm16-80c-12.759 0-101.878 0-120 0-17.645 0-32-14.355-32-32s14.355-32 32-32h120c17.645 0 32 14.355 32 32s-14.355 32-32 32z"/>
  <path d="m169.952 187.31c2.976 0 4.563-1.417 6.394-2.807 3.92-2.959 4.276-7.981 1.727-11.345-2.536-3.347-7.462-4.398-11.39-1.407-.502.381-1.006.762-1.517 1.143-6.117 4.557-2.933 14.416 4.786 14.416z"/>
</svg>