<svg version="1.1" id="svg-swim" fill='#fff' xmlns="http://www.w3.org/2000/svg" xmlns:xlink="http://www.w3.org/1999/xlink" x="0px" y="0px"
	 viewBox="0 0 512.002 512.002" style="enable-background:new 0 0 512.002 512.002;" xml:space="preserve">
  <g>
		<path d="M504.398,243.491c-31.343,0-47.221,6.479-62.578,12.744c-3.888,1.587-5.754,6.024-4.167,9.912
			c1.203,2.948,4.044,4.734,7.043,4.734c0.956,0,1.928-0.182,2.869-0.566c14.642-5.975,28.472-11.617,56.833-11.617
			c4.2,0,7.604-3.405,7.604-7.604S508.597,243.491,504.398,243.491z"/>
  </g>
	<g>
		<path d="M504.398,374.351c-31.345,0-47.224,6.48-62.58,12.745c-14.641,5.975-28.471,11.618-56.833,11.618
			c-28.362,0-42.191-5.643-56.833-11.618c-15.356-6.266-31.235-12.745-62.58-12.745c-31.344,0-47.223,6.48-62.579,12.745
			c-14.641,5.975-28.471,11.618-56.833,11.618c-28.368,0-42.2-5.643-56.844-11.619c-4.312-1.759-8.77-3.578-13.609-5.252
			c-3.969-1.371-8.3,0.733-9.671,4.701c-1.373,3.969,0.733,8.299,4.701,9.672c4.448,1.538,8.52,3.2,12.833,4.96
			c15.358,6.267,31.239,12.745,62.59,12.745c31.344,0,47.222-6.48,62.579-12.745c14.641-5.975,28.471-11.618,56.833-11.618
			c28.363,0,42.192,5.643,56.835,11.618c15.356,6.266,31.234,12.745,62.578,12.745c31.344,0,47.223-6.48,62.578-12.745
			c14.642-5.975,28.472-11.618,56.835-11.618c4.2,0,7.604-3.405,7.604-7.604S508.597,374.351,504.398,374.351z"/>
	</g>
	<g>
		<path d="M47.759,375.485c-6.549-0.763-13.424-1.134-21.02-1.134c-7.119,0-13.645,0.33-19.945,1.007
			c-4.175,0.449-7.197,4.198-6.747,8.373c0.449,4.176,4.193,7.2,8.373,6.747c5.756-0.618,11.748-0.92,18.318-0.92
			c7.002,0,13.302,0.338,19.26,1.033c0.299,0.034,0.596,0.052,0.89,0.052c3.805,0,7.091-2.852,7.542-6.724
			C54.918,379.747,51.931,375.972,47.759,375.485z"/>
	</g>
	<g>
		<path d="M504.398,333.289c-28.367,0-42.2-5.646-56.843-11.624c-15.356-6.268-31.236-12.749-62.579-12.749
			c-31.344,0-47.224,6.482-62.581,12.75c-14.643,5.978-28.475,11.623-56.842,11.623c-28.362,0-42.191-5.645-56.834-11.623
			c-15.356-6.269-31.234-12.75-62.579-12.75c-31.346,0-47.224,6.483-62.581,12.75c-14.641,5.978-28.471,11.623-56.833,11.623
			c-6.565,0-12.553-0.301-18.308-0.92c-4.18-0.455-7.923,2.573-8.373,6.747c-0.449,4.175,2.572,7.924,6.747,8.373
			c6.3,0.677,12.821,1.007,19.933,1.007c31.346,0,47.225-6.483,62.581-12.75c14.641-5.978,28.471-11.623,56.832-11.623
			s42.19,5.645,56.832,11.623c15.356,6.269,31.236,12.75,62.582,12.75c31.352,0,47.232-6.483,62.59-12.751
			c14.642-5.978,28.472-11.622,56.833-11.622c28.36,0,42.189,5.645,56.832,11.622c15.358,6.27,31.24,12.751,62.591,12.751
			c4.2,0,7.604-3.405,7.604-7.604S508.597,333.289,504.398,333.289z"/>
	</g>
	<g>
		<path d="M504.398,202.429c-28.368,0-42.198-5.646-56.84-11.625c-7.967-3.253-16.172-6.6-26.69-9.051
			c-8.237-32.14-37.446-55.969-72.119-55.969c-36.091,0-66.256,25.821-73.016,59.958c-3.199-0.099-7.334-0.113-12.255,0.119
			l-27.72-67.322c-0.819-1.99-1.837-3.907-3.024-5.698c-6.322-9.524-16.935-15.026-28.34-14.751l-73.338,1.716
			c-8.822,0.222-17.029,3.866-23.11,10.26c-6.081,6.395-9.308,14.775-9.086,23.596c0.222,8.822,3.866,17.029,10.26,23.11
			s14.764,9.303,23.578,9.086l50.614-1.157l8.072,19.606c-11.152-3.509-25.048-6.253-45.245-6.253
			c-31.346,0-47.224,6.483-62.58,12.75c-14.641,5.978-28.471,11.623-56.833,11.623c-6.563,0-12.552-0.3-18.308-0.92
			c-4.196-0.45-7.924,2.573-8.373,6.748c-0.449,4.175,2.572,7.924,6.747,8.372c6.303,0.677,12.822,1.007,19.934,1.007
			c31.345,0,47.225-6.483,62.581-12.75c14.641-5.978,28.471-11.623,56.832-11.623c23.758,0,37.492,4.034,49.329,8.61
			c-30.922,13.481-57.679,34.674-79.706,63.136c-10.343-2.205-18.27-5.437-26.448-8.774c-15.356-6.266-31.235-12.744-62.578-12.744
			c-7.119,0-13.645,0.329-19.945,1.007c-4.175,0.449-7.196,4.198-6.747,8.373c0.449,4.176,4.193,7.2,8.373,6.747
			c5.756-0.618,11.748-0.92,18.318-0.92c28.361,0,42.19,5.643,56.833,11.617c15.357,6.267,31.239,12.746,62.59,12.746
			c31.344,0,47.223-6.48,62.579-12.745c14.641-5.975,28.471-11.618,56.833-11.618s42.192,5.643,56.834,11.618
			c15.356,6.266,31.235,12.745,62.579,12.745c13.626,0,25.499-1.241,36.295-3.793c4.087-0.966,6.616-5.062,5.65-9.149
			c-0.965-4.087-5.064-6.618-9.149-5.65c-9.635,2.278-20.362,3.385-32.796,3.385c-1.735,0-3.413-0.021-5.042-0.063
			c25.505-11.823,43.247-37.654,43.247-67.566c0-0.727-0.034-1.446-0.055-2.168c6.761,1.963,12.603,4.346,18.674,6.825
			c15.356,6.27,31.236,12.753,62.588,12.753c4.2,0,7.604-3.405,7.604-7.604S508.598,202.429,504.398,202.429z M265.572,243.49
			c-31.344,0-47.223,6.48-62.579,12.745c-14.641,5.975-28.471,11.618-56.833,11.618c-4.632,0-8.871-0.153-12.795-0.431
			c19.905-23.648,43.573-41.303,70.575-52.619l2.599,6.311c1.598,3.883,6.042,5.735,9.927,4.137
			c3.883-1.599,5.734-6.043,4.137-9.927l-25.213-61.236c-1.197-2.908-4.075-4.798-7.204-4.707l-55.849,1.276
			c-4.771,0.127-9.283-1.622-12.734-4.903c-3.451-3.282-5.418-7.71-5.537-12.473c-0.12-4.76,1.621-9.283,4.903-12.734
			c3.281-3.451,7.71-5.417,12.458-5.537l73.338-1.716c6.147-0.164,11.89,2.82,15.3,7.958c0.642,0.966,1.19,2,1.632,3.076
			l32.095,77.948c3.673,8.92-0.533,19.301-9.377,23.139c-3.853,1.672-5.62,6.151-3.948,10.003c1.245,2.866,4.041,4.579,6.979,4.579
			c1.011,0,2.038-0.203,3.023-0.631c14.95-6.49,22.746-23.061,18.839-38.466c1.871-0.025,3.55-0.013,5.019,0.021
			c0.153,16.511,5.698,31.753,14.97,44.043C282.442,244.037,274.66,243.49,265.572,243.49z M348.751,259.459
			c-32.661,0-59.234-26.572-59.234-59.234c-0.002-13.594,4.614-26.124,12.345-36.133l14.024,14.024
			c-4.387,8.885-2.908,19.957,4.479,27.343c4.452,4.452,10.245,6.742,16.091,6.918c0.175,5.845,2.466,11.638,6.918,16.09
			c4.634,4.634,10.722,6.951,16.81,6.951c3.615,0,7.223-0.837,10.534-2.472l14.167,14.168
			C374.876,254.844,362.346,259.459,348.751,259.459z M331.119,182.595c1.669-1.669,3.863-2.504,6.056-2.504
			c2.192,0,4.385,0.834,6.055,2.504c3.34,3.339,3.34,8.772,0,12.111c-3.339,3.34-8.771,3.338-12.11,0
			C327.779,191.367,327.779,185.935,331.119,182.595z M354.127,205.603c1.669-1.669,3.863-2.504,6.056-2.504
			c2.192,0,4.385,0.834,6.055,2.504c3.34,3.339,3.34,8.772,0,12.111c-3.339,3.34-8.771,3.338-12.11,0
			C350.787,214.375,350.787,208.942,354.127,205.603z M395.636,236.36l-14.167-14.167c4.387-8.885,2.908-19.957-4.479-27.344
			c-4.452-4.452-10.246-6.741-16.091-6.918c-0.175-5.845-2.466-11.639-6.918-16.09c-7.387-7.387-18.457-8.865-27.343-4.479
			l-14.024-14.025c10.008-7.731,22.538-12.346,36.134-12.346c32.661,0.001,59.233,26.572,59.233,59.234
			C407.982,213.821,403.367,226.352,395.636,236.36z"/>
	</g>
	<g>
		<path d="M327.022,224.573c-2.445-6.33-11.722-6.356-14.177,0c-1.268,3.283-0.048,7.11,2.875,9.061
			c2.829,1.908,6.728,1.619,9.267-0.646C327.334,230.896,328.156,227.507,327.022,224.573z"/>
	</g>
</svg>
