<svg id="svg-heartrate" fill='#fff' height="512" viewBox="0 0 512 512" width="512" xmlns="http://www.w3.org/2000/svg">
	<g>
		<path d="m497 271h-14.425c18.967-29.266 29.425-59.332 29.425-93.485 0-38.852-13.376-75.248-37.665-102.485-25.319-28.393-60.242-44.03-98.335-44.03-39.241 0-74.885 16.199-103.079 46.844-6.831 7.426-12.445 14.858-16.921 21.533-4.476-6.675-10.09-14.107-16.921-21.533-28.194-30.645-63.838-46.844-103.079-46.844-38.093 0-73.016 15.637-98.335 44.03-24.289 27.237-37.665 63.634-37.665 102.485 0 34.153 10.458 64.219 29.425 93.485h-14.425c-8.284 0-15 6.716-15 15s6.716 15 15 15h36.9c31.71 37.53 76.476 75.605 130.176 121.271 20.429 17.372 41.553 35.335 64.047 55.018 2.827 2.474 6.352 3.711 9.877 3.711s7.05-1.237 9.878-3.711c22.494-19.683 43.618-37.646 64.047-55.018 53.7-45.666 98.465-83.741 130.175-121.271h36.9c8.284 0 15-6.716 15-15s-6.716-15-15-15zm-467-93.485c0-66.424 45.57-116.515 106-116.515 30.756 0 57.79 12.265 80.351 36.454 17.541 18.806 25.713 38.098 25.793 38.291 2.316 5.588 7.771 9.22 13.823 9.237h.041c6.049 0 11.516-3.653 13.849-9.237.08-.192 8.252-19.484 25.793-38.291 22.56-24.189 49.594-36.454 80.35-36.454 60.43 0 106 50.091 106 116.515 0 33.278-13.063 63.104-36.411 93.485h-60.319l-40.854-81.708c-2.54-5.082-7.734-8.292-13.416-8.292s-10.876 3.21-13.416 8.292l-31.584 63.167-16.584-33.167c-2.713-5.426-8.407-8.682-14.479-8.254-6.052.43-11.248 4.463-13.167 10.219l-15.017 45.051-31.386-104.618c-1.85-6.167-7.428-10.465-13.862-10.682-6.427-.202-12.288 3.697-14.55 9.725l-41.35 110.267h-59.194c-23.348-30.381-36.411-60.207-36.411-93.485zm280.49 221.902c-17.5 14.882-35.508 30.195-54.49 46.684-18.982-16.489-36.99-31.802-54.49-46.684-43.37-36.881-80.556-68.505-109.108-98.417h43.598c6.253 0 11.85-3.878 14.045-9.733l29.375-78.333 32.213 107.376c1.879 6.265 7.601 10.589 14.14 10.688.077.002.153.002.229.002 6.446 0 12.185-4.125 14.229-10.257l18.548-55.645 13.806 27.61c2.539 5.082 7.733 8.292 13.415 8.292s10.876-3.21 13.416-8.292l31.584-63.167 31.584 63.167c2.54 5.082 7.734 8.292 13.416 8.292h43.598c-28.552 29.912-65.738 61.536-109.108 98.417z"/>
	</g>
</svg>