<svg id='svg-profile-female' fill='#fff' height="512pt" viewBox="-40 0 512 512.001" width="512pt" xmlns="http://www.w3.org/2000/svg">
  <path d="m309.1875 243.015625c4.144531 0 7.5-3.359375 7.5-7.5v-17.730469c0-4.140625-3.355469-7.5-7.5-7.5-4.140625 0-7.5 3.359375-7.5 7.5v17.730469c0 4.140625 3.359375 7.5 7.5 7.5zm0 0"/>
  <path d="m321.261719 254.074219h-24.148438c-4.140625 0-7.5 3.359375-7.5 7.5 0 4.144531 3.359375 7.5 7.5 7.5h24.148438c4.144531 0 7.5-3.355469 7.5-7.5 0-4.140625-3.355469-7.5-7.5-7.5zm0 0"/>
  <path d="m126.816406 243.015625c4.140625 0 7.5-3.359375 7.5-7.5v-17.730469c0-4.140625-3.359375-7.5-7.5-7.5s-7.5 3.359375-7.5 7.5v17.730469c0 4.140625 3.359375 7.5 7.5 7.5zm0 0"/>
  <path d="m138.890625 254.074219h-24.148437c-4.140626 0-7.5 3.359375-7.5 7.5 0 4.144531 3.359374 7.5 7.5 7.5h24.148437c4.144531 0 7.5-3.355469 7.5-7.5 0-4.140625-3.355469-7.5-7.5-7.5zm0 0"/>
  <path d="m239.246094 247.710938c-3.117188-2.726563-7.855469-2.410157-10.582032.710937-2.582031 2.957031-6.46875 4.652344-10.660156 4.652344-4.195312 0-8.082031-1.695313-10.664062-4.652344-2.726563-3.117187-7.464844-3.4375-10.582032-.710937-3.121093 2.726562-3.4375 7.464843-.710937 10.582031 5.429687 6.214843 13.433594 9.78125 21.957031 9.78125 8.519532 0 16.523438-3.5625 21.953125-9.78125 2.726563-3.117188 2.410157-7.855469-.710937-10.582031zm0 0"/>
  <path d="m388.433594 275.46875c24.527344-.773438 44.246094-20.957031 44.246094-45.667969 0-11.921875-4.59375-22.789062-12.097657-30.9375-2.226562-14.554687-6.027343-28.871093-11.34375-42.585937-18.273437-47.140625-54.304687-86.789063-99.457031-109.507813-53.074219-26.707031-116.949219-28.820312-171.617188-5.53125-11.96875-24.960937-37.359374-41.238281-65.503906-41.238281-40.066406 0-72.660156 32.59375-72.660156 72.660156 0 26.078125 13.972656 49.941406 36.195312 62.839844-3.527343 6.738281-6.675781 13.671875-9.429687 20.78125-5.316406 13.710938-9.113281 28.027344-11.339844 42.578125-7.507812 8.148437-12.101562 19.015625-12.101562 30.941406 0 24.710938 19.71875 44.894531 44.25 45.667969 14.425781 53.492188 53.558593 96.984375 104.394531 117.515625-2.195312 1.5625-4.554688 3.335937-7.039062 5.359375-12.207032 9.957031-28.992188 27.136719-39.605469 52.457031-6.925781 16.527344-10.433594 34.59375-10.433594 53.699219 0 4.144531 3.355469 7.5 7.5 7.5h231.226563c4.140624 0 7.5-3.355469 7.5-7.5 0-19.105469-3.511719-37.171875-10.433594-53.699219-10.609375-25.308593-27.386719-42.484375-39.613282-52.457031-2.480468-2.019531-4.835937-3.796875-7.03125-5.359375 50.835938-20.535156 89.964844-64.023437 104.394532-117.515625zm14.621094-88.46875c-.820313-.308594-1.648438-.585938-2.484376-.84375-.023437-.007812-.042968-.011719-.0625-.019531-5.023437-1.53125-10.371093-2.3125-15.625-1.996094-.011718 0-.023437 0-.035156 0-.0625-.144531-.136718-.289063-.203125-.433594-2.660156-5.964843-5.875-11.800781-9.527343-17.214843h21.917968c2.390625 6.710937 4.402344 13.5625 6.019532 20.507812zm-11.195313 73.117188c.457031-2.613282.847656-5.238282 1.183594-7.875 2.226562-17.433594 2.085937-35.40625-2.625-52.4375-.046875-.179688-.089844-.359376-.140625-.539063 4.792968.515625 9.257812 2.140625 13.136718 4.605469 8.789063 5.597656 14.265626 15.503906 14.265626 25.929687 0 15.269531-11.203126 27.96875-25.820313 30.316407zm-88.820313-199.949219c20.714844 10.421875 39.578126 24.789062 55.257813 41.992187h-44.757813c-4.144531 0-7.5 3.359375-7.5 7.5s3.355469 7.5 7.5 7.5h57.085938c7.988281 10.734375 14.796875 22.234375 20.324219 34.332032h-345.894531c2.480468-5.425782 5.226562-10.722657 8.207031-15.886719 3.65625-6.335938 7.757812-12.539063 12.152343-18.445313h218.125c4.140626 0 7.5-3.355468 7.5-7.5 0-4.140625-3.359374-7.5-7.5-7.5h-205.808593c16.78125-18.414062 37.164062-33.539062 59.660156-44.136718 52.101563-24.542969 114.226563-23.730469 165.648437 2.144531zm-254.007812 123.925781c-5.476562-.003906-10.953125.976562-16.082031 2.90625 1.617187-6.945312 3.625-13.796875 6.019531-20.507812h21.917969c-.308594.460937-.597657.9375-.902344 1.402343-3.371094 5.164063-6.34375 10.601563-8.828125 16.25-.011719 0-.023438 0-.03125-.003906-.699219-.03125-1.394531-.046875-2.09375-.046875zm-34.03125-111.433594c0-31.792968 25.867188-57.660156 57.660156-57.660156 22.292969 0 42.410156 12.867188 51.933594 32.609375-.207031.109375-.414062.222656-.621094.332031-31.238281 16.242188-58.101562 40.613282-77.449218 70.015625-.027344.039063-1.972657 3.039063-2.890626 4.519531-17.585937-10.25-28.632812-29.160156-28.632812-49.816406zm29.144531 187.457032c-14.617187-2.347657-25.820312-15.046876-25.820312-30.316407 0-14.867187 11.300781-28.0625 25.976562-30.347656.472657-.070313.949219-.132813 1.425781-.183594-.046874.171875-.089843.34375-.136718.515625-4.640625 16.792969-4.84375 34.746094-2.679688 52.042969.019532.140625.78125 5.675781 1.234375 8.289063zm208.164063 142.328124c-2.066406 17.09375-16.660156 30.386719-34.304688 30.386719-17.644531 0-32.242187-13.292969-34.308594-30.386719 11.285157 2.214844 22.808594 3.332032 34.308594 3.332032 11.496094 0 23.023438-1.117188 34.304688-3.332032zm-133.152344 54.152344c6.1875-14.761718 14.769531-26.425781 23.015625-35.210937v75.613281h-32.078125c.78125-14.328125 3.820312-27.886719 9.0625-40.402344zm38.015625-48.8125c4.601563-3.535156 8.574219-6.070312 11.320313-7.691406.960937 26.484375 22.796874 47.738281 49.511718 47.738281s48.546875-21.253906 49.507813-47.738281c2.75 1.621094 6.71875 4.15625 11.324219 7.691406v89.214844h-121.664063zm159.675781 48.8125c5.242188 12.515625 8.28125 26.078125 9.0625 40.402344h-32.078125v-75.613281c8.246094 8.785156 16.828125 20.449219 23.015625 35.210937zm-53.898437-72.175781c-29.132813 8.429687-60.765625 8.425781-89.894531 0-58.210938-16.84375-102.96875-65.542969-113.933594-125.832031-.027344-.148438-.054688-.296875-.082032-.445313-5.679687-31.859375-.679687-66.320312 20.636719-91.65625h276.652344c8.113281 9.636719 14.320313 20.835938 18.269531 32.792969 6.289063 19.03125 5.835938 39.773438 2.285156 59.304688-10.964843 60.292968-55.722656 108.992187-113.933593 125.835937zm0 0"/>
</svg>