<svg xmlns="http://www.w3.org/2000/svg" xmlns:xlink="http://www.w3.org/1999/xlink" version="1.1" id="svg-run" fill='#000' x="0px" y="0px" viewBox="0 0 428.934 428.934" style="enable-background:new 0 0 428.934 428.934;" xml:space="preserve" width="512px" height="512px" class="">
<g>

	<path d="M428.712,236.293c-1.152-5.4-6.457-8.841-11.866-7.694c-30.155,6.43-58.485-7.331-74.974-36.031   c5.427-11.889,8.849-22.308,9.271-31.956c1.084-24.828-18.37-38.352-33.094-46.361c-12.715-6.925-23.616-10.291-33.326-10.291   c-8.959,0-16.615,2.805-23.457,7.662c-15.827-6.685-32.643-7.267-47.706-1.028c-24.314,10.071-38.83,35.719-38.83,68.608   c0,5.522,4.477,10,10,10c5.522,0,10-4.478,10-10c0-24.888,9.653-43.159,26.483-50.131c7.617-3.155,16.037-3.607,24.473-1.586   c-7.842,10.438-14.937,23.48-22.463,37.332c-18.061,33.166-23.334,53.776-18.197,71.141c0.864,2.922,2.033,5.696,3.491,8.353   c-17.375,19.062-78.705,86.244-125.083,135.803c-1.733,1.853-2.698,4.296-2.698,6.833v31.46c0,5.522,4.478,10,10,10   c5.522,0,10-4.478,10-10v-27.513c44.801-47.932,102.154-110.727,121.023-131.422c3.672,2.905,7.913,5.663,12.786,8.305   c9.779,5.303,18.606,8.253,26.852,8.97c20.982,10.451,24.382,30.911,20.817,45.471c-4.135,16.893-20.114,36.12-51.597,34.724   c-2.824-0.127-5.592,0.959-7.58,2.985c-1.989,2.026-3.022,4.803-2.844,7.636l2.104,33.272c0.335,5.297,4.736,9.369,9.971,9.369   c0.212,0,0.426-0.007,0.641-0.02c5.512-0.349,9.697-5.1,9.35-10.611l-1.444-22.845c34.188-2.816,55.024-26.05,60.827-49.754   c5.173-21.132-0.613-41.68-14.651-56.044c16.353-9.48,28.907-28.986,40.105-49.592c1.522-2.794,2.986-5.503,4.402-8.152   c8.436,11.366,18.777,20.517,30.523,26.886c12.381,6.715,25.958,10.121,40.009,10.121c6.257,0,12.61-0.676,18.989-2.036   C426.419,247.007,429.863,241.694,428.712,236.293z M265.335,256.929c-5.951,0-12.904-2.202-21.256-6.731   c-11.364-6.162-17.68-12.489-19.875-19.911c-3.374-11.406,1.74-28.647,16.588-55.91c9.395-17.292,16.697-29.964,23.543-38.281   c3.23,2.258,6.368,4.89,9.36,7.883c3.906,3.904,10.236,3.904,14.143,0c3.905-3.905,3.905-10.237,0-14.143   c-2.001-2.001-4.058-3.877-6.162-5.633c0.998-0.157,2.01-0.243,3.047-0.243c6.283,0,14.056,2.569,23.765,7.857   c20.512,11.159,23.02,20.015,22.675,27.923c-0.337,7.719-3.854,17.202-9.424,28.708c-0.082,0.165-0.169,0.329-0.242,0.498   c-3.348,6.877-7.413,14.467-11.969,22.835C292.101,243.849,279.297,256.929,265.335,256.929z"/>
	
	<path d="M10,158.444h138.282c5.523,0,10-4.477,10-10c0-5.522-4.477-10-10-10H10c-5.523,0-10,4.478-10,10   C0,153.967,4.477,158.444,10,158.444z"/>
	
	<path d="M10,200.444h136.833c5.522,0,10-4.477,10-10c0-5.522-4.478-10-10-10H10c-5.523,0-10,4.478-10,10   C0,195.967,4.477,200.444,10,200.444z"/>
	
	<path d="M183.755,232.444c0-5.522-4.478-10-10-10H10c-5.523,0-10,4.478-10,10c0,5.523,4.477,10,10,10h163.755   C179.277,242.444,183.755,237.967,183.755,232.444z"/>
	
	<path d="M326.376,112.997c6.553,2.445,13.392,3.686,20.327,3.686c24.09,0,45.943-15.188,54.38-37.795   c5.412-14.503,4.852-30.262-1.577-44.371c-6.438-14.129-17.99-24.898-32.526-30.323c-6.521-2.434-13.336-3.668-20.254-3.668   c-24.14,0-46.021,15.173-54.45,37.757C281.079,68.284,296.376,101.801,326.376,112.997z M311.014,45.274   c5.524-14.803,19.876-24.749,35.712-24.749c4.522,0,8.983,0.81,13.262,2.406c9.526,3.555,17.098,10.614,21.319,19.878   c4.216,9.253,4.585,19.582,1.038,29.086c-5.532,14.826-19.855,24.787-35.642,24.787c-4.539,0-9.025-0.815-13.335-2.424   C313.701,86.919,303.673,64.945,311.014,45.274z"/>
</g>
</svg>
