<svg id='svg-icon-park-run-logo' version="1.0" xmlns="http://www.w3.org/2000/svg"
 width="242pt" height="243pt" viewBox="0 0 242 243"
 preserveAspectRatio="xMidYMid meet" fill="#000">
<g transform="translate(0,243) scale(0.100000,-0.100000)"
 stroke="none">
<path d="M1120 2396 c-31 -6 -82 -25 -113 -40 -65 -33 -164 -131 -196 -193
-27 -53 -51 -154 -51 -214 l0 -46 -57 -12 c-137 -30 -285 -143 -350 -267 -45
-85 -63 -162 -63 -274 0 -158 41 -268 140 -373 100 -107 230 -169 385 -183 88
-8 115 6 115 61 0 44 -13 51 -96 58 -140 11 -264 76 -340 180 -105 141 -119
298 -42 450 74 148 230 247 390 247 l60 0 -8 38 c-5 20 -9 73 -9 117 0 98 30
170 100 240 71 71 141 100 245 100 73 0 93 -4 142 -28 73 -36 139 -101 174
-174 22 -44 29 -74 32 -142 2 -47 9 -92 14 -98 14 -17 73 -16 87 1 37 44 19
205 -34 312 -94 191 -306 288 -525 240z"/>
<path d="M1126 1554 c-14 -14 -16 -95 -16 -740 0 -481 3 -732 10 -745 8 -14
21 -19 55 -19 34 0 47 5 55 19 6 12 10 108 10 243 0 123 5 239 10 259 33 118
164 210 324 226 68 6 96 24 96 60 0 55 -14 63 -104 63 -118 0 -235 -38 -298
-98 l-28 -26 0 365 c0 408 0 409 -65 409 -18 0 -41 -7 -49 -16z"/>
</g>
</svg>